<svg version="1.1" id="Layer_1" xmlns="http://www.w3.org/2000/svg" xmlns:xlink="http://www.w3.org/1999/xlink" x="0px" y="0px"
	 width="100%" viewBox="0 0 1167 1168" enable-background="new 0 0 1167 1168" xml:space="preserve">
<path fill="#13100D" opacity="1.000000" stroke="none" 
	d="
M563.000000,0.999998 
	C577.020874,1.000000 591.041809,1.000000 605.702209,1.406533 
	C620.924805,2.874588 635.535706,3.652840 650.082642,5.082215 
	C663.033081,6.354727 676.093323,7.501793 688.783875,10.209644 
	C711.286682,15.011169 733.818970,20.040993 755.844238,26.629097 
	C790.195435,36.904091 823.488953,50.149376 854.960571,67.541794 
	C870.738281,76.261139 886.631897,84.859894 901.817322,94.541756 
	C927.748047,111.074593 952.119812,129.828079 974.851440,150.540115 
	C987.552368,162.112640 999.796326,174.291565 1011.289124,187.058762 
	C1025.712158,203.081299 1039.570312,219.658691 1052.919556,236.590149 
	C1071.439819,260.080353 1087.196899,285.496460 1100.829834,312.071564 
	C1110.870605,331.644257 1120.252808,351.662140 1128.289673,372.125275 
	C1136.255127,392.406891 1143.045410,413.256531 1148.751831,434.290955 
	C1155.351685,458.618378 1160.787598,483.306946 1163.024536,508.543427 
	C1164.296021,522.886475 1165.655884,537.221741 1167.029419,551.555481 
	C1167.141235,552.723938 1167.666626,553.852783 1168.000000,555.000000 
	C1168.000000,574.687561 1168.000000,594.375122 1167.593994,614.701660 
	C1166.792725,621.253723 1166.599243,627.188599 1165.962280,633.075562 
	C1164.419067,647.338989 1163.058350,661.639404 1160.896484,675.813904 
	C1158.606079,690.830994 1156.331909,705.943542 1152.505615,720.611267 
	C1147.079956,741.409485 1140.653564,761.975525 1133.903442,782.392334 
	C1124.854248,809.764221 1112.771118,835.859619 1099.008057,861.193787 
	C1083.403809,889.916748 1066.335571,917.687073 1045.472168,942.926086 
	C1031.914795,959.326965 1018.297913,975.722107 1003.865051,991.341064 
	C993.681335,1002.361633 982.230103,1012.237549 971.071472,1022.322083 
	C962.211182,1030.329346 953.379883,1038.487061 943.749634,1045.498291 
	C925.868042,1058.516846 907.749634,1071.277466 889.087402,1083.134399 
	C874.715393,1092.265503 859.637451,1100.410156 844.363647,1107.962402 
	C828.838135,1115.639160 813.002869,1122.921387 796.737000,1128.813110 
	C773.368652,1137.277222 749.793579,1145.534424 725.736023,1151.625977 
	C703.366211,1157.290283 680.328613,1160.561401 657.433655,1163.824219 
	C641.233643,1166.133057 624.779968,1166.654785 608.444031,1168.027710 
	C606.946045,1168.153564 605.480591,1168.666626 604.000000,1169.000000 
	C591.312439,1169.000000 578.624878,1169.000000 565.297729,1168.593384 
	C557.411682,1167.791992 550.141235,1167.645508 542.923462,1166.951172 
	C527.322021,1165.450562 511.664001,1164.217163 496.184601,1161.855347 
	C479.266510,1159.273926 462.297913,1156.408936 445.761169,1152.095947 
	C424.502045,1146.551270 403.492767,1139.910889 382.665314,1132.884521 
	C358.435730,1124.710205 335.241821,1113.997925 312.645599,1101.992188 
	C287.100220,1088.419434 262.211884,1073.741699 239.405106,1055.925415 
	C220.252731,1040.963745 200.962463,1025.987183 183.325760,1009.330872 
	C165.850403,992.826965 149.829224,974.673828 134.183533,956.377502 
	C122.192764,942.355164 111.168213,927.396851 100.834908,912.097656 
	C90.487579,896.777649 81.374390,880.610168 72.003586,864.647888 
	C59.511387,843.368530 48.954613,821.066101 40.655743,797.888306 
	C32.223225,774.337341 24.522808,750.453491 18.012825,726.308044 
	C13.105304,708.106079 9.976955,689.352112 7.176041,670.675964 
	C4.657615,653.883423 3.672345,636.861389 1.962828,619.945435 
	C1.894709,619.271423 1.332180,618.647339 1.000007,618.000000 
	C1.000000,595.979126 1.000000,573.958191 1.405406,551.299377 
	C2.539448,541.830627 2.941931,532.958008 4.067336,524.178040 
	C6.152918,507.907043 7.911097,491.537415 11.180159,475.488831 
	C15.416905,454.689667 20.195007,433.925690 26.238844,413.592041 
	C31.666920,395.330048 38.199558,377.262268 45.909199,359.845520 
	C56.185566,336.630249 67.229012,313.661896 79.503212,291.449615 
	C91.921394,268.976807 106.237274,247.548279 122.726494,227.721786 
	C134.530045,213.529282 145.989059,199.017853 158.392258,185.366928 
	C167.967300,174.828644 178.394287,164.976807 189.115845,155.588776 
	C204.465820,142.148010 220.180832,129.093460 236.188644,116.441689 
	C261.329865,96.571358 288.720551,80.076431 317.205139,65.556831 
	C334.217651,56.884930 351.687012,48.888958 369.535858,42.134571 
	C391.273621,33.908535 413.401337,26.507870 435.772827,20.216866 
	C460.214142,13.343810 485.162811,8.306874 510.541687,6.008329 
	C526.537048,4.559644 542.553528,3.345144 558.556030,1.972516 
	C560.054077,1.844019 561.519470,1.333267 563.000000,0.999998 
M138.653748,774.002136 
	C175.083389,774.002136 211.513031,774.002136 248.439972,774.002136 
	C248.439972,735.900330 248.439972,698.359070 248.439972,660.508301 
	C250.752960,660.508301 252.571960,660.508301 254.390945,660.508301 
	C274.385162,660.508301 294.379822,660.591553 314.373444,660.484192 
	C333.226227,660.382935 351.957214,658.948975 370.235229,653.952332 
	C416.207123,641.385010 447.367676,613.739380 459.295471,566.446045 
	C460.079498,563.337463 459.526123,561.203857 457.792938,558.662964 
	C422.178772,506.452301 386.625092,454.200226 351.183044,401.872650 
	C349.256042,399.027588 347.270050,398.082703 343.938568,398.092987 
	C278.633057,398.294495 213.327194,398.381714 148.021408,398.490814 
	C144.189194,398.497223 140.356583,398.461029 136.524948,398.509155 
	C135.259995,398.524994 133.997559,398.744141 132.857285,398.858002 
	C132.857285,524.101440 132.857285,648.956177 132.857285,774.002136 
	C134.715195,774.002136 136.207962,774.002136 138.653748,774.002136 
M673.397827,522.902710 
	C701.518982,481.657806 729.640076,440.412964 758.221313,398.493286 
	C717.169922,398.493286 677.351257,398.559631 637.533386,398.399567 
	C633.128540,398.381866 630.412170,399.564697 627.779541,403.309479 
	C546.246460,519.288818 464.575806,635.171448 382.926880,751.069336 
	C377.699982,758.488708 372.477936,765.911499 366.888458,773.851440 
	C368.422302,773.925781 369.199219,773.996399 369.976166,773.996460 
	C412.804169,774.001770 455.632324,773.961670 498.459961,774.085449 
	C501.483856,774.094177 502.819977,772.873657 504.208893,770.518555 
	C524.727356,735.726685 545.328491,700.983398 565.921204,666.235291 
	C566.619934,665.056274 567.436462,663.947021 568.407959,662.490540 
	C589.135437,698.660522 609.580139,734.255737 629.888672,769.928467 
	C631.538879,772.827087 633.176147,774.109558 636.715332,774.097473 
	C680.042786,773.949646 723.370972,774.001282 766.698914,774.001282 
	C768.127441,774.001282 769.555969,774.001282 771.985107,774.001282 
	C726.944153,707.230164 682.443115,641.259460 637.840210,575.137634 
	C649.614258,557.848267 661.308044,540.676880 673.397827,522.902710 
M895.499390,677.490662 
	C891.249695,677.490662 887.000061,677.490662 882.355103,677.490662 
	C882.355103,584.107666 882.355103,491.530731 882.355103,398.737366 
	C843.689514,398.737366 805.442078,398.737366 767.079590,398.737366 
	C766.981750,399.787781 766.839600,400.601196 766.839539,401.414612 
	C766.829224,503.061554 766.817871,604.708496 766.914185,706.355347 
	C766.916016,708.331238 767.802795,710.566956 768.930359,712.241333 
	C781.937744,731.555725 795.140503,750.738708 808.099121,770.085449 
	C810.097351,773.068787 812.191650,774.092102 815.758667,774.086914 
	C891.577087,773.975647 967.395752,774.002625 1043.214355,774.002625 
	C1044.837280,774.002625 1046.460083,774.002625 1048.190430,774.002625 
	C1048.190430,741.678101 1048.190430,709.783325 1048.190430,677.490723 
	C997.415344,677.490723 946.958130,677.490723 895.499390,677.490662 
M391.197266,412.307892 
	C424.636139,459.267883 458.074982,506.227844 491.769440,553.546753 
	C492.603577,552.516663 493.137665,551.930176 493.590973,551.286743 
	C513.130676,523.554993 532.630432,495.794830 552.255310,468.123413 
	C553.950256,465.733490 554.062927,464.062256 552.611572,461.490326 
	C541.597473,441.971619 530.692261,422.390167 519.944763,402.723572 
	C518.211548,399.552002 516.309631,398.380890 512.623657,398.393921 
	C470.653961,398.542450 428.683563,398.488312 386.713379,398.488312 
	C385.274689,398.488312 383.836029,398.488312 381.399231,398.488312 
	C384.927277,403.419250 387.884857,407.552887 391.197266,412.307892 
z"/>
<path fill="#FFFFFF" opacity="1.000000" stroke="none" 
	d="
M604.468628,1169.000000 
	C605.480591,1168.666626 606.946045,1168.153564 608.444031,1168.027710 
	C624.779968,1166.654785 641.233643,1166.133057 657.433655,1163.824219 
	C680.328613,1160.561401 703.366211,1157.290283 725.736023,1151.625977 
	C749.793579,1145.534424 773.368652,1137.277222 796.737000,1128.813110 
	C813.002869,1122.921387 828.838135,1115.639160 844.363647,1107.962402 
	C859.637451,1100.410156 874.715393,1092.265503 889.087402,1083.134399 
	C907.749634,1071.277466 925.868042,1058.516846 943.749634,1045.498291 
	C953.379883,1038.487061 962.211182,1030.329346 971.071472,1022.322083 
	C982.230103,1012.237549 993.681335,1002.361633 1003.865051,991.341064 
	C1018.297913,975.722107 1031.914795,959.326965 1045.472168,942.926086 
	C1066.335571,917.687073 1083.403809,889.916748 1099.008057,861.193787 
	C1112.771118,835.859619 1124.854248,809.764221 1133.903442,782.392334 
	C1140.653564,761.975525 1147.079956,741.409485 1152.505615,720.611267 
	C1156.331909,705.943542 1158.606079,690.830994 1160.896484,675.813904 
	C1163.058350,661.639404 1164.419067,647.338989 1165.962280,633.075562 
	C1166.599243,627.188599 1166.792725,621.253723 1167.593994,615.170288 
	C1168.000000,799.594421 1168.000000,984.188782 1168.000000,1169.000000 
	C980.312500,1169.000000 792.624878,1169.000000 604.468628,1169.000000 
z"/>
<path fill="#FFFFFF" opacity="1.000000" stroke="none" 
	d="
M1168.000000,554.531372 
	C1167.666626,553.852783 1167.141235,552.723938 1167.029419,551.555481 
	C1165.655884,537.221741 1164.296021,522.886475 1163.024536,508.543427 
	C1160.787598,483.306946 1155.351685,458.618378 1148.751831,434.290955 
	C1143.045410,413.256531 1136.255127,392.406891 1128.289673,372.125275 
	C1120.252808,351.662140 1110.870605,331.644257 1100.829834,312.071564 
	C1087.196899,285.496460 1071.439819,260.080353 1052.919556,236.590149 
	C1039.570312,219.658691 1025.712158,203.081299 1011.289124,187.058762 
	C999.796326,174.291565 987.552368,162.112640 974.851440,150.540115 
	C952.119812,129.828079 927.748047,111.074593 901.817322,94.541756 
	C886.631897,84.859894 870.738281,76.261139 854.960571,67.541794 
	C823.488953,50.149376 790.195435,36.904091 755.844238,26.629097 
	C733.818970,20.040993 711.286682,15.011169 688.783875,10.209644 
	C676.093323,7.501793 663.033081,6.354727 650.082642,5.082215 
	C635.535706,3.652840 620.924805,2.874588 606.170898,1.406533 
	C793.259888,1.000000 980.519775,1.000000 1168.000000,1.000000 
	C1168.000000,185.354172 1168.000000,369.708435 1168.000000,554.531372 
z"/>
<path fill="#FFFFFF" opacity="1.000000" stroke="none" 
	d="
M1.000007,618.468628 
	C1.332180,618.647339 1.894709,619.271423 1.962828,619.945435 
	C3.672345,636.861389 4.657615,653.883423 7.176041,670.675964 
	C9.976955,689.352112 13.105304,708.106079 18.012825,726.308044 
	C24.522808,750.453491 32.223225,774.337341 40.655743,797.888306 
	C48.954613,821.066101 59.511387,843.368530 72.003586,864.647888 
	C81.374390,880.610168 90.487579,896.777649 100.834908,912.097656 
	C111.168213,927.396851 122.192764,942.355164 134.183533,956.377502 
	C149.829224,974.673828 165.850403,992.826965 183.325760,1009.330872 
	C200.962463,1025.987183 220.252731,1040.963745 239.405106,1055.925415 
	C262.211884,1073.741699 287.100220,1088.419434 312.645599,1101.992188 
	C335.241821,1113.997925 358.435730,1124.710205 382.665314,1132.884521 
	C403.492767,1139.910889 424.502045,1146.551270 445.761169,1152.095947 
	C462.297913,1156.408936 479.266510,1159.273926 496.184601,1161.855347 
	C511.664001,1164.217163 527.322021,1165.450562 542.923462,1166.951172 
	C550.141235,1167.645508 557.411682,1167.791992 564.829102,1168.593384 
	C377.073761,1169.000000 189.147507,1169.000000 1.000000,1169.000000 
	C1.000000,985.645813 1.000000,802.291565 1.000007,618.468628 
z"/>
<path fill="#FFFFFF" opacity="1.000000" stroke="none" 
	d="
M562.531372,0.999998 
	C561.519470,1.333267 560.054077,1.844019 558.556030,1.972516 
	C542.553528,3.345144 526.537048,4.559644 510.541687,6.008329 
	C485.162811,8.306874 460.214142,13.343810 435.772827,20.216866 
	C413.401337,26.507870 391.273621,33.908535 369.535858,42.134571 
	C351.687012,48.888958 334.217651,56.884930 317.205139,65.556831 
	C288.720551,80.076431 261.329865,96.571358 236.188644,116.441689 
	C220.180832,129.093460 204.465820,142.148010 189.115845,155.588776 
	C178.394287,164.976807 167.967300,174.828644 158.392258,185.366928 
	C145.989059,199.017853 134.530045,213.529282 122.726494,227.721786 
	C106.237274,247.548279 91.921394,268.976807 79.503212,291.449615 
	C67.229012,313.661896 56.185566,336.630249 45.909199,359.845520 
	C38.199558,377.262268 31.666920,395.330048 26.238844,413.592041 
	C20.195007,433.925690 15.416905,454.689667 11.180159,475.488831 
	C7.911097,491.537415 6.152918,507.907043 4.067336,524.178040 
	C2.941931,532.958008 2.539448,541.830627 1.405406,550.830688 
	C1.000000,367.738800 1.000000,184.477570 1.000000,1.000000 
	C188.020844,1.000000 375.041748,1.000000 562.531372,0.999998 
z"/>
<path fill="#FEFEFE" opacity="1.000000" stroke="none" 
	d="
M138.177246,774.002136 
	C136.207962,774.002136 134.715195,774.002136 132.857285,774.002136 
	C132.857285,648.956177 132.857285,524.101440 132.857285,398.858002 
	C133.997559,398.744141 135.259995,398.524994 136.524948,398.509155 
	C140.356583,398.461029 144.189194,398.497223 148.021408,398.490814 
	C213.327194,398.381714 278.633057,398.294495 343.938568,398.092987 
	C347.270050,398.082703 349.256042,399.027588 351.183044,401.872650 
	C386.625092,454.200226 422.178772,506.452301 457.792938,558.662964 
	C459.526123,561.203857 460.079498,563.337463 459.295471,566.446045 
	C447.367676,613.739380 416.207123,641.385010 370.235229,653.952332 
	C351.957214,658.948975 333.226227,660.382935 314.373444,660.484192 
	C294.379822,660.591553 274.385162,660.508301 254.390945,660.508301 
	C252.571960,660.508301 250.752960,660.508301 248.439972,660.508301 
	C248.439972,698.359070 248.439972,735.900330 248.439972,774.002136 
	C211.513031,774.002136 175.083389,774.002136 138.177246,774.002136 
M301.575134,482.827026 
	C290.917725,482.652161 283.827972,489.140656 276.809662,496.870514 
	C274.092438,493.990723 271.912170,491.248688 269.304169,489.003387 
	C263.372131,483.896240 256.376129,481.465179 248.552109,482.439392 
	C236.965714,483.882111 228.867981,490.244141 224.799545,501.128204 
	C220.460022,512.737488 221.720993,524.150696 230.028275,533.383789 
	C241.590042,546.234131 253.942917,558.390808 266.268768,570.527893 
	C272.561462,576.724243 281.492188,576.503601 287.785370,570.300171 
	C299.753510,558.502747 311.787872,546.746460 323.217224,534.436890 
	C332.204193,524.757812 333.593292,512.895874 328.679260,500.929901 
	C324.020020,489.584320 315.267944,483.002014 301.575134,482.827026 
z"/>
<path fill="#FEFEFE" opacity="1.000000" stroke="none" 
	d="
M673.199829,523.204102 
	C661.308044,540.676880 649.614258,557.848267 637.840210,575.137634 
	C682.443115,641.259460 726.944153,707.230164 771.985107,774.001282 
	C769.555969,774.001282 768.127441,774.001282 766.698914,774.001282 
	C723.370972,774.001282 680.042786,773.949646 636.715332,774.097473 
	C633.176147,774.109558 631.538879,772.827087 629.888672,769.928467 
	C609.580139,734.255737 589.135437,698.660522 568.407959,662.490540 
	C567.436462,663.947021 566.619934,665.056274 565.921204,666.235291 
	C545.328491,700.983398 524.727356,735.726685 504.208893,770.518555 
	C502.819977,772.873657 501.483856,774.094177 498.459961,774.085449 
	C455.632324,773.961670 412.804169,774.001770 369.976166,773.996460 
	C369.199219,773.996399 368.422302,773.925781 366.888458,773.851440 
	C372.477936,765.911499 377.699982,758.488708 382.926880,751.069336 
	C464.575806,635.171448 546.246460,519.288818 627.779541,403.309479 
	C630.412170,399.564697 633.128540,398.381866 637.533386,398.399567 
	C677.351257,398.559631 717.169922,398.493286 758.221313,398.493286 
	C729.640076,440.412964 701.518982,481.657806 673.199829,523.204102 
z"/>
<path fill="#FEFEFE" opacity="1.000000" stroke="none" 
	d="
M896.000183,677.490723 
	C946.958130,677.490723 997.415344,677.490723 1048.190430,677.490723 
	C1048.190430,709.783325 1048.190430,741.678101 1048.190430,774.002625 
	C1046.460083,774.002625 1044.837280,774.002625 1043.214355,774.002625 
	C967.395752,774.002625 891.577087,773.975647 815.758667,774.086914 
	C812.191650,774.092102 810.097351,773.068787 808.099121,770.085449 
	C795.140503,750.738708 781.937744,731.555725 768.930359,712.241333 
	C767.802795,710.566956 766.916016,708.331238 766.914185,706.355347 
	C766.817871,604.708496 766.829224,503.061554 766.839539,401.414612 
	C766.839600,400.601196 766.981750,399.787781 767.079590,398.737366 
	C805.442078,398.737366 843.689514,398.737366 882.355103,398.737366 
	C882.355103,491.530731 882.355103,584.107666 882.355103,677.490662 
	C887.000061,677.490662 891.249695,677.490662 896.000183,677.490723 
z"/>
<path fill="#FDFDFD" opacity="1.000000" stroke="none" 
	d="
M391.019836,411.997192 
	C387.884857,407.552887 384.927277,403.419250 381.399231,398.488312 
	C383.836029,398.488312 385.274689,398.488312 386.713379,398.488312 
	C428.683563,398.488312 470.653961,398.542450 512.623657,398.393921 
	C516.309631,398.380890 518.211548,399.552002 519.944763,402.723572 
	C530.692261,422.390167 541.597473,441.971619 552.611572,461.490326 
	C554.062927,464.062256 553.950256,465.733490 552.255310,468.123413 
	C532.630432,495.794830 513.130676,523.554993 493.590973,551.286743 
	C493.137665,551.930176 492.603577,552.516663 491.769440,553.546753 
	C458.074982,506.227844 424.636139,459.267883 391.019836,411.997192 
z"/>
<path fill="#20201E" opacity="1.000000" stroke="none" 
	d="
M302.031860,482.826996 
	C315.267944,483.002014 324.020020,489.584320 328.679260,500.929901 
	C333.593292,512.895874 332.204193,524.757812 323.217224,534.436890 
	C311.787872,546.746460 299.753510,558.502747 287.785370,570.300171 
	C281.492188,576.503601 272.561462,576.724243 266.268768,570.527893 
	C253.942917,558.390808 241.590042,546.234131 230.028275,533.383789 
	C221.720993,524.150696 220.460022,512.737488 224.799545,501.128204 
	C228.867981,490.244141 236.965714,483.882111 248.552109,482.439392 
	C256.376129,481.465179 263.372131,483.896240 269.304169,489.003387 
	C271.912170,491.248688 274.092438,493.990723 276.809662,496.870514 
	C283.827972,489.140656 290.917725,482.652161 302.031860,482.826996 
M267.672394,544.827637 
	C270.778870,547.776855 273.885315,550.726074 276.541412,553.247742 
	C287.659302,542.435669 299.026093,531.712219 309.968384,520.571899 
	C314.144958,516.319641 313.175659,508.699005 308.889221,504.740509 
	C304.475189,500.664185 299.478668,501.091217 294.465271,506.179413 
	C288.772888,511.956757 283.202850,517.854736 277.663300,523.613281 
	C270.935272,517.042908 264.848297,511.171112 258.849670,505.210480 
	C255.748642,502.129089 252.186920,500.687378 248.017899,502.304718 
	C243.736023,503.965820 240.985992,507.637512 241.420609,511.951355 
	C241.790359,515.621399 243.501099,519.745544 245.936874,522.505188 
	C252.645416,530.105835 260.045715,537.096008 267.672394,544.827637 
z"/>
<path fill="#FBFBFB" opacity="1.000000" stroke="none" 
	d="
M267.422394,544.577637 
	C260.045715,537.096008 252.645416,530.105835 245.936874,522.505188 
	C243.501099,519.745544 241.790359,515.621399 241.420609,511.951355 
	C240.985992,507.637512 243.736023,503.965820 248.017899,502.304718 
	C252.186920,500.687378 255.748642,502.129089 258.849670,505.210480 
	C264.848297,511.171112 270.935272,517.042908 277.663300,523.613281 
	C283.202850,517.854736 288.772888,511.956757 294.465271,506.179413 
	C299.478668,501.091217 304.475189,500.664185 308.889221,504.740509 
	C313.175659,508.699005 314.144958,516.319641 309.968384,520.571899 
	C299.026093,531.712219 287.659302,542.435669 276.541412,553.247742 
	C273.885315,550.726074 270.778870,547.776855 267.422394,544.577637 
z"/>
</svg>